<?xml version="1.0" encoding="utf-8" standalone="no"?>
<!DOCTYPE svg PUBLIC "-//W3C//DTD SVG 1.1//EN"
  "http://www.w3.org/Graphics/SVG/1.1/DTD/svg11.dtd">
<svg xmlns:xlink="http://www.w3.org/1999/xlink" width="540.139688pt" height="209.44875pt" viewBox="0 0 540.139688 209.44875" xmlns="http://www.w3.org/2000/svg" version="1.1">
 <metadata>
  <rdf:RDF xmlns:dc="http://purl.org/dc/elements/1.1/" xmlns:cc="http://creativecommons.org/ns#" xmlns:rdf="http://www.w3.org/1999/02/22-rdf-syntax-ns#">
   <cc:Work>
    <dc:type rdf:resource="http://purl.org/dc/dcmitype/StillImage"/>
    <dc:format>image/svg+xml</dc:format>
    <dc:creator>
     <cc:Agent>
      <dc:title>LatentK · original constructed example</dc:title>
     </cc:Agent>
    </dc:creator>
   </cc:Work>
  </rdf:RDF>
 </metadata>
 <defs>
  <style type="text/css">*{stroke-linejoin: round; stroke-linecap: butt}</style>
 </defs>
 <g id="figure_1">
  <g id="patch_1">
   <path d="M 0 209.44875
L 540.139688 209.44875
L 540.139688 0
L 0 0
z
" style="fill: #fbfaf6"/>
  </g>
  <g id="axes_1">
   <g id="patch_2">
    <path d="M 68.954375 159.3375
L 516.624375 159.3375
L 516.624375 12.96
L 68.954375 12.96
z
" style="fill: #fbfaf6"/>
   </g>
   <g id="matplotlib.axis_1">
    <g id="xtick_1">
     <g id="line2d_1"/>
     <g id="text_1">
      <text style="font-size: 12px; font-family: 'Microsoft YaHei'; text-anchor: middle; fill: #263044" x="68.954375" y="176.93" transform="rotate(-0 68.954375 176.93)">0</text>
     </g>
    </g>
    <g id="xtick_2">
     <g id="line2d_2"/>
     <g id="text_2">
      <text style="font-size: 12px; font-family: 'Microsoft YaHei'; text-anchor: middle; fill: #263044" x="292.789375" y="176.93" transform="rotate(-0 292.789375 176.93)">50</text>
     </g>
    </g>
    <g id="xtick_3">
     <g id="line2d_3"/>
     <g id="text_3">
      <text style="font-size: 12px; font-family: 'Microsoft YaHei'; text-anchor: middle; fill: #263044" x="516.624375" y="176.93" transform="rotate(-0 516.624375 176.93)">100</text>
     </g>
    </g>
    <g id="text_4">
     <text style="font-size: 12px; font-family: 'Microsoft YaHei'; text-anchor: middle; fill: #263044" x="292.789375" y="193.505625" transform="rotate(-0 292.789375 193.505625)">尝试次数 · 每条长度相同，构成不同</text>
    </g>
   </g>
   <g id="matplotlib.axis_2">
    <g id="ytick_1">
     <g id="line2d_4"/>
     <g id="text_5">
      <text style="font-size: 12px; font-family: 'Microsoft YaHei'; text-anchor: end; fill: #263044" x="60.954375" y="66.54875" transform="rotate(-0 60.954375 66.54875)">A 的试卷</text>
     </g>
    </g>
    <g id="ytick_2">
     <g id="line2d_5"/>
     <g id="text_6">
      <text style="font-size: 12px; font-family: 'Microsoft YaHei'; text-anchor: end; fill: #263044" x="60.954375" y="127.539375" transform="rotate(-0 60.954375 127.539375)">B 的试卷</text>
     </g>
    </g>
   </g>
   <g id="patch_3">
    <path d="M 68.954375 75.780344
L 471.857375 75.780344
L 471.857375 47.724656
L 68.954375 47.724656
z
" clip-path="url(#p14a50dbe66)" style="fill: #3b4f9e"/>
   </g>
   <g id="patch_4">
    <path d="M 471.857375 75.780344
L 516.624375 75.780344
L 516.624375 47.724656
L 471.857375 47.724656
z
" clip-path="url(#p14a50dbe66)" style="fill: url(#h3fe86fd7b3); stroke: #fbfaf6; stroke-linejoin: miter"/>
   </g>
   <g id="patch_5">
    <path d="M 68.954375 136.770969
L 158.488375 136.770969
L 158.488375 108.715281
L 68.954375 108.715281
z
" clip-path="url(#p14a50dbe66)" style="fill: #3b4f9e"/>
   </g>
   <g id="patch_6">
    <path d="M 158.488375 136.770969
L 516.624375 136.770969
L 516.624375 108.715281
L 158.488375 108.715281
z
" clip-path="url(#p14a50dbe66)" style="fill: url(#h3fe86fd7b3); stroke: #fbfaf6; stroke-linejoin: miter"/>
   </g>
   <g id="patch_7">
    <path d="M 68.954375 159.3375
L 516.624375 159.3375
" style="fill: none; stroke: #dddeda; stroke-width: 0.8; stroke-linejoin: miter; stroke-linecap: square"/>
   </g>
   <g id="text_7">
    <text style="font-size: 12px; font-family: 'Microsoft YaHei'; text-anchor: middle; fill: #ffffff" x="270.405875" y="65.057187" transform="rotate(-0 270.405875 65.057187)">无遮挡 90 次</text>
   </g>
   <g id="patch_8">
    <path d="M 469.720428 36.769758
Q 481.060237 41.553938 492.400046 46.338118
" style="fill: none; stroke: #bc5635; stroke-linecap: round"/>
   </g>
   <g id="text_8">
    <text style="font-size: 11px; font-family: 'Microsoft YaHei'; text-anchor: middle; fill: #263044" x="449.473875" y="31.257187" transform="rotate(-0 449.473875 31.257187)">有遮挡 10 次</text>
   </g>
   <g id="text_9">
    <text style="font-size: 12px; font-family: 'Microsoft YaHei'; text-anchor: middle; fill: #ffffff" x="113.721375" y="126.047812" transform="rotate(-0 113.721375 126.047812)">无遮挡 20 次</text>
   </g>
   <g id="text_10">
    <text style="font-size: 12px; font-family: 'Microsoft YaHei'; text-anchor: middle; fill: #ffffff" x="337.556375" y="126.047812" transform="rotate(-0 337.556375 126.047812)">有遮挡 80 次</text>
   </g>
  </g>
 </g>
 <defs>
  <clipPath id="p14a50dbe66">
   <rect x="68.954375" y="12.96" width="447.67" height="146.3775"/>
  </clipPath>
 </defs>
 <defs>
  <pattern id="h3fe86fd7b3" patternUnits="userSpaceOnUse" x="0" y="0" width="72" height="72">
   <rect x="0" y="0" width="73" height="73" fill="#bc5635"/>
   <path d="M -36 36
L 36 -36
M -30 42
L 42 -30
M -24 48
L 48 -24
M -18 54
L 54 -18
M -12 60
L 60 -12
M -6 66
L 66 -6
M 0 72
L 72 0
M 6 78
L 78 6
M 12 84
L 84 12
M 18 90
L 90 18
M 24 96
L 96 24
M 30 102
L 102 30
M 36 108
L 108 36
" style="fill: #fbfaf6; stroke: #fbfaf6; stroke-width: 1.0; stroke-linecap: butt; stroke-linejoin: miter"/>
  </pattern>
 </defs>
</svg>
